<?xml version="1.0" standalone="no"?>
<!DOCTYPE svg PUBLIC "-//W3C//DTD SVG 20010904//EN"
 "http://www.w3.org/TR/2001/REC-SVG-20010904/DTD/svg10.dtd">
<svg version="1.0" xmlns="http://www.w3.org/2000/svg"
 width="127.000000pt" height="249.000000pt" viewBox="0 0 127.000000 249.000000"
 preserveAspectRatio="xMidYMid meet">

<g transform="translate(0.000000,249.000000) scale(0.100000,-0.100000)"
fill="#000000" stroke="none">
<path d="M434 2093 c-102 -208 -237 -484 -300 -613 l-115 -236 300 -607 c214
-434 304 -607 316 -607 12 0 102 173 317 607 l299 607 -85 175 c-324 670 -517
1051 -531 1051 -10 0 -76 -124 -201 -377z m377 -60 c83 -170 193 -395 245
-501 104 -215 106 -207 -27 -106 -72 55 -128 86 -144 80 -7 -2 -24 -66 -40
-153 -16 -81 -31 -151 -35 -156 -4 -5 -323 131 -349 150 -4 3 192 993 196 993
2 0 71 -138 154 -307z m-307 -192 c-52 -256 -96 -466 -97 -467 -3 -3 -204 90
-212 98 -6 5 396 839 402 834 1 0 -41 -210 -93 -465z m551 -496 c66 -48 124
-92 130 -96 9 -9 -72 -189 -86 -189 -7 0 -231 99 -237 105 -2 2 9 66 24 143
19 94 32 138 39 133 5 -5 64 -48 130 -96z m-663 -24 c6 -5 -37 -239 -45 -247
-2 -3 -254 160 -266 172 -3 3 15 44 39 93 l43 88 111 -50 c61 -27 114 -52 118
-56z m241 -108 c146 -67 168 -80 165 -98 -145 -747 -184 -945 -188 -945 -5 0
-476 947 -489 982 -2 6 51 -26 118 -71 66 -45 125 -81 131 -81 15 0 24 30 51
168 12 67 28 122 33 122 6 0 87 -34 179 -77z m334 -152 c59 -27 107 -54 106
-60 -5 -19 -396 -811 -399 -808 -3 3 162 866 172 900 3 9 7 17 9 17 2 0 52
-22 112 -49z"/>
</g>
</svg>
